# Blender 4.1.1
# www.blender.org
mtllib traffic cone.mtl
o traffic_cone
v 0.000000 0.000000 -1.078650
v -0.762721 0.000000 -0.762721
v -1.078650 0.000000 0.000000
v -0.762721 0.000000 0.762721
v 0.000000 0.000000 1.078650
v 0.762721 0.000000 0.762721
v 1.078650 0.000000 0.000000
v 0.762721 0.000000 -0.762721
v 0.000000 0.202651 -1.078650
v -0.762721 0.202651 -0.762721
v -1.078650 0.202651 0.000000
v -0.762721 0.202651 0.762721
v 0.000000 0.202651 1.078650
v 0.762721 0.202651 0.762721
v 1.078650 0.202651 0.000000
v 0.762721 0.202651 -0.762721
v -0.000000 0.202651 -0.665754
v -0.470759 0.202651 -0.470759
v -0.665754 0.202651 0.000000
v -0.470759 0.202651 0.470759
v -0.000000 0.202651 0.665754
v 0.470759 0.202651 0.470759
v 0.665754 0.202651 0.000000
v 0.470759 0.202651 -0.470759
v -0.000000 2.452019 -0.227598
v -0.160936 2.452019 -0.160936
v -0.227598 2.452019 -0.000000
v -0.160936 2.452019 0.160936
v -0.000000 2.452019 0.227598
v 0.160936 2.452019 0.160936
v 0.227598 2.452019 -0.000000
v 0.160936 2.452019 -0.160936
v -0.000000 2.452019 -0.141736
v -0.100222 2.452019 -0.100222
v -0.141736 2.452019 -0.000000
v -0.100222 2.452019 0.100222
v -0.000000 2.452019 0.141736
v 0.100222 2.452019 0.100222
v 0.141736 2.452019 -0.000000
v 0.100222 2.452019 -0.100222
v -0.000000 0.004574 -0.601037
v -0.424997 0.004574 -0.424997
v -0.601037 0.004574 0.000000
v -0.424997 0.004574 0.424997
v -0.000000 0.004574 0.601037
v 0.424997 0.004574 0.424997
v 0.601037 0.004574 0.000000
v 0.424997 0.004574 -0.424997
v 0.356055 1.792557 -0.000000
v 0.251769 1.792557 -0.251769
v -0.000000 1.792557 0.356055
v 0.251769 1.792557 0.251769
v -0.356055 1.792557 -0.000000
v -0.251769 1.792557 0.251769
v -0.000000 1.792557 -0.356055
v -0.251769 1.792557 -0.251769
v 0.286041 1.543738 -0.286041
v 0.286041 1.543738 0.286041
v -0.286041 1.543738 0.286041
v -0.286041 1.543738 -0.286041
v 0.404523 1.543738 -0.000000
v -0.000000 1.543738 0.404523
v -0.404523 1.543738 -0.000000
v -0.000000 1.543738 -0.404523
v 0.374081 0.904554 -0.374081
v 0.374081 0.904554 0.374081
v -0.374081 0.904554 0.374081
v -0.374081 0.904554 -0.374081
v 0.529030 0.904554 -0.000000
v -0.000000 0.904554 0.529030
v -0.529030 0.904554 -0.000000
v -0.000000 0.904554 -0.529030
v 0.418106 0.584925 -0.418106
v 0.418106 0.584925 0.418106
v -0.418106 0.584925 0.418106
v -0.418106 0.584925 -0.418106
v 0.591291 0.584925 -0.000000
v -0.000000 0.584925 0.591291
v -0.591291 0.584925 -0.000000
v -0.000000 0.584925 -0.591291
vn -0.3827 -0.0000 -0.9239
vn 0.3827 -0.0000 -0.9239
vn 0.9239 -0.0000 0.3827
vn -0.3827 -0.0000 0.9239
vn -0.9239 -0.0000 -0.3827
vn 0.9239 -0.0000 -0.3827
vn 0.3827 -0.0000 0.9239
vn -0.9239 -0.0000 0.3827
vn -0.0000 1.0000 -0.0000
vn 0.9093 0.1771 -0.3766
vn 0.3766 0.1771 0.9093
vn -0.9093 0.1771 0.3766
vn -0.3766 0.1771 -0.9093
vn 0.3766 0.1771 -0.9093
vn 0.9093 0.1771 0.3766
vn -0.3766 0.1771 0.9093
vn -0.9093 0.1771 -0.3766
vn 0.3771 -0.1708 -0.9103
vn 0.9103 -0.1708 0.3771
vn -0.9103 -0.1708 0.3771
vn -0.3771 -0.1708 -0.9103
vn 0.9103 -0.1708 -0.3771
vn 0.3771 -0.1708 0.9103
vn -0.3771 -0.1708 0.9103
vn -0.9103 -0.1708 -0.3771
vn -0.0040 -0.9999 0.0096
vn -0.0096 -0.9999 0.0040
vn -0.0096 -0.9999 -0.0040
vn -0.0040 -0.9999 -0.0096
vn 0.0040 -0.9999 -0.0096
vn 0.0096 -0.9999 -0.0040
vn 0.0096 -0.9999 0.0040
vn 0.0040 -0.9999 0.0096
vt 0.000000 0.000000
s 0
usemtl traffic_cone_base_color
f 2/1/1 10/1/1 9/1/1 1/1/1
f 1/1/2 9/1/2 16/1/2 8/1/2
f 7/1/3 15/1/3 14/1/3 6/1/3
f 5/1/4 13/1/4 12/1/4 4/1/4
f 3/1/5 11/1/5 10/1/5 2/1/5
f 8/1/6 16/1/6 15/1/6 7/1/6
f 6/1/7 14/1/7 13/1/7 5/1/7
f 4/1/8 12/1/8 11/1/8 3/1/8
f 13/1/9 21/1/9 20/1/9 12/1/9
f 11/1/9 19/1/9 18/1/9 10/1/9
f 16/1/9 24/1/9 23/1/9 15/1/9
f 14/1/9 22/1/9 21/1/9 13/1/9
f 12/1/9 20/1/9 19/1/9 11/1/9
f 10/1/9 18/1/9 17/1/9 9/1/9
f 9/1/9 17/1/9 24/1/9 16/1/9
f 15/1/9 23/1/9 22/1/9 14/1/9
f 50/1/10 32/1/10 31/1/10 49/1/10
f 52/1/11 30/1/11 29/1/11 51/1/11
f 54/1/12 28/1/12 27/1/12 53/1/12
f 56/1/13 26/1/13 25/1/13 55/1/13
f 55/1/14 25/1/14 32/1/14 50/1/14
f 49/1/15 31/1/15 30/1/15 52/1/15
f 51/1/16 29/1/16 28/1/16 54/1/16
f 53/1/17 27/1/17 26/1/17 56/1/17
f 27/1/9 35/1/9 34/1/9 26/1/9
f 32/1/9 40/1/9 39/1/9 31/1/9
f 30/1/9 38/1/9 37/1/9 29/1/9
f 28/1/9 36/1/9 35/1/9 27/1/9
f 26/1/9 34/1/9 33/1/9 25/1/9
f 25/1/9 33/1/9 40/1/9 32/1/9
f 31/1/9 39/1/9 38/1/9 30/1/9
f 29/1/9 37/1/9 36/1/9 28/1/9
f 37/1/18 45/1/18 44/1/18 36/1/18
f 35/1/19 43/1/19 42/1/19 34/1/19
f 40/1/20 48/1/20 47/1/20 39/1/20
f 38/1/21 46/1/21 45/1/21 37/1/21
f 36/1/22 44/1/22 43/1/22 35/1/22
f 34/1/23 42/1/23 41/1/23 33/1/23
f 33/1/24 41/1/24 48/1/24 40/1/24
f 39/1/25 47/1/25 46/1/25 38/1/25
f 41/1/26 1/1/26 8/1/26 48/1/26
f 48/1/27 8/1/27 7/1/27 47/1/27
f 47/1/28 7/1/28 6/1/28 46/1/28
f 46/1/29 6/1/29 5/1/29 45/1/29
f 45/1/30 5/1/30 4/1/30 44/1/30
f 44/1/31 4/1/31 3/1/31 43/1/31
f 43/1/32 3/1/32 2/1/32 42/1/32
f 42/1/33 2/1/33 1/1/33 41/1/33
f 65/1/10 57/1/10 61/1/10 69/1/10
f 66/1/11 58/1/11 62/1/11 70/1/11
f 67/1/12 59/1/12 63/1/12 71/1/12
f 68/1/13 60/1/13 64/1/13 72/1/13
f 72/1/14 64/1/14 57/1/14 65/1/14
f 69/1/15 61/1/15 58/1/15 66/1/15
f 70/1/16 62/1/16 59/1/16 67/1/16
f 71/1/17 63/1/17 60/1/17 68/1/17
f 24/1/10 73/1/10 77/1/10 23/1/10
f 22/1/11 74/1/11 78/1/11 21/1/11
f 20/1/12 75/1/12 79/1/12 19/1/12
f 18/1/13 76/1/13 80/1/13 17/1/13
f 17/1/14 80/1/14 73/1/14 24/1/14
f 23/1/15 77/1/15 74/1/15 22/1/15
f 21/1/16 78/1/16 75/1/16 20/1/16
f 19/1/17 79/1/17 76/1/17 18/1/17
usemtl traffic_cone_stripes
f 63/1/17 53/1/17 56/1/17 60/1/17
f 62/1/16 51/1/16 54/1/16 59/1/16
f 61/1/15 49/1/15 52/1/15 58/1/15
f 64/1/14 55/1/14 50/1/14 57/1/14
f 60/1/13 56/1/13 55/1/13 64/1/13
f 59/1/12 54/1/12 53/1/12 63/1/12
f 58/1/11 52/1/11 51/1/11 62/1/11
f 57/1/10 50/1/10 49/1/10 61/1/10
f 79/1/17 71/1/17 68/1/17 76/1/17
f 78/1/16 70/1/16 67/1/16 75/1/16
f 77/1/15 69/1/15 66/1/15 74/1/15
f 80/1/14 72/1/14 65/1/14 73/1/14
f 76/1/13 68/1/13 72/1/13 80/1/13
f 75/1/12 67/1/12 71/1/12 79/1/12
f 74/1/11 66/1/11 70/1/11 78/1/11
f 73/1/10 65/1/10 69/1/10 77/1/10
